<mxfile host="Electron" agent="Mozilla/5.0 (X11; Linux x86_64) AppleWebKit/537.36 (KHTML, like Gecko) draw.io/28.1.2 Chrome/138.0.7204.243 Electron/37.4.0 Safari/537.36" version="28.1.2">
  <diagram name="Page-1" id="5eEAtBDf8XuX85UMNVz1">
    <mxGraphModel dx="775" dy="485" grid="1" gridSize="10" guides="1" tooltips="1" connect="1" arrows="1" fold="1" page="1" pageScale="1" pageWidth="850" pageHeight="1100" math="0" shadow="0">
      <root>
        <mxCell id="0" />
        <mxCell id="1" parent="0" />
        <mxCell id="QeY7dAsujiUH8Vi82t3R-6" value="Empresa" style="swimlane;fontStyle=1;align=center;verticalAlign=middle;childLayout=stackLayout;horizontal=1;startSize=29;horizontalStack=0;resizeParent=1;resizeParentMax=0;resizeLast=0;collapsible=0;marginBottom=0;html=1;whiteSpace=wrap;" parent="1" vertex="1">
          <mxGeometry x="520" y="150" width="210" height="210" as="geometry" />
        </mxCell>
        <mxCell id="QeY7dAsujiUH8Vi82t3R-7" value="- nombre:string&lt;div&gt;- CUIT:string&lt;/div&gt;" style="text;html=1;strokeColor=none;fillColor=none;align=center;verticalAlign=middle;spacingLeft=4;spacingRight=4;overflow=hidden;rotatable=0;points=[[0,0.5],[1,0.5]];portConstraint=eastwest;whiteSpace=wrap;" parent="QeY7dAsujiUH8Vi82t3R-6" vertex="1">
          <mxGeometry y="29" width="210" height="41" as="geometry" />
        </mxCell>
        <mxCell id="QeY7dAsujiUH8Vi82t3R-8" value="+&lt;u&gt;new(string,string)&lt;/u&gt;&lt;div&gt;+totalSueldoNeto(): float&lt;/div&gt;&lt;div&gt;+totalSueldoBruto(): float&lt;/div&gt;&lt;div&gt;+totalRetenciones(): float&lt;/div&gt;&lt;div&gt;+liquidacionSueldos(): void&lt;/div&gt;&lt;div&gt;-generarRecibo(empleado):Recibo&lt;/div&gt;&lt;div&gt;&lt;div&gt;+getNombre(): string&lt;/div&gt;&lt;div&gt;+getCUIT(): string&lt;br&gt;&lt;div&gt;&lt;br&gt;&lt;/div&gt;&lt;/div&gt;&lt;/div&gt;" style="text;html=1;strokeColor=default;fillColor=none;align=left;verticalAlign=middle;spacingLeft=4;spacingRight=4;overflow=hidden;rotatable=0;points=[[0,0.5],[1,0.5]];portConstraint=eastwest;whiteSpace=wrap;" parent="QeY7dAsujiUH8Vi82t3R-6" vertex="1">
          <mxGeometry y="70" width="210" height="140" as="geometry" />
        </mxCell>
        <mxCell id="QeY7dAsujiUH8Vi82t3R-9" value="Empleado" style="swimlane;fontStyle=1;align=center;verticalAlign=middle;childLayout=stackLayout;horizontal=1;startSize=29;horizontalStack=0;resizeParent=1;resizeParentMax=0;resizeLast=0;collapsible=0;marginBottom=0;html=1;whiteSpace=wrap;" parent="1" vertex="1">
          <mxGeometry x="980" y="300" width="210" height="120" as="geometry" />
        </mxCell>
        <mxCell id="QeY7dAsujiUH8Vi82t3R-10" value="&lt;div&gt;-nombre: string&lt;/div&gt;&lt;div&gt;-dirección: string&lt;/div&gt;&lt;div&gt;-esConyuge: bool&lt;/div&gt;&lt;div&gt;-fechaDeNacimiento: Date&lt;/div&gt;&lt;div&gt;-sueldoBásico: float&lt;/div&gt;" style="text;html=1;strokeColor=none;fillColor=none;align=center;verticalAlign=middle;spacingLeft=4;spacingRight=4;overflow=hidden;rotatable=0;points=[[0,0.5],[1,0.5]];portConstraint=eastwest;whiteSpace=wrap;" parent="QeY7dAsujiUH8Vi82t3R-9" vertex="1">
          <mxGeometry y="29" width="210" height="91" as="geometry" />
        </mxCell>
        <mxCell id="QeY7dAsujiUH8Vi82t3R-14" value="&lt;font style=&quot;font-size: 11px;&quot;&gt;empleados&lt;/font&gt;" style="text;html=1;align=center;verticalAlign=middle;resizable=0;points=[];autosize=1;strokeColor=none;fillColor=none;" parent="1" vertex="1">
          <mxGeometry x="800" y="310" width="80" height="30" as="geometry" />
        </mxCell>
        <mxCell id="QeY7dAsujiUH8Vi82t3R-16" value="*" style="text;html=1;align=center;verticalAlign=middle;resizable=0;points=[];autosize=1;strokeColor=none;fillColor=none;" parent="1" vertex="1">
          <mxGeometry x="940" y="320" width="30" height="30" as="geometry" />
        </mxCell>
        <mxCell id="QeY7dAsujiUH8Vi82t3R-25" value="Extends" style="edgeStyle=orthogonalEdgeStyle;rounded=0;orthogonalLoop=1;jettySize=auto;html=1;endArrow=block;endFill=0;strokeWidth=1;endSize=12;exitX=0.522;exitY=0.004;exitDx=0;exitDy=0;exitPerimeter=0;" parent="1" source="QeY7dAsujiUH8Vi82t3R-19" edge="1">
          <mxGeometry relative="1" as="geometry">
            <mxPoint x="1015" y="610" as="targetPoint" />
            <mxPoint x="870" y="660" as="sourcePoint" />
            <Array as="points">
              <mxPoint x="870" y="666" />
              <mxPoint x="870" y="640" />
              <mxPoint x="1015" y="640" />
            </Array>
          </mxGeometry>
        </mxCell>
        <mxCell id="QeY7dAsujiUH8Vi82t3R-19" value="EmpleadoPermanente" style="swimlane;fontStyle=1;align=center;verticalAlign=middle;childLayout=stackLayout;horizontal=1;startSize=29;horizontalStack=0;resizeParent=1;resizeParentMax=0;resizeLast=0;collapsible=0;marginBottom=0;html=1;whiteSpace=wrap;" parent="1" vertex="1">
          <mxGeometry x="720" y="665" width="230" height="220" as="geometry" />
        </mxCell>
        <mxCell id="QeY7dAsujiUH8Vi82t3R-20" value="-cantHijos: int&lt;div&gt;&lt;div&gt;-antiguedad: int&lt;/div&gt;&lt;/div&gt;" style="text;html=1;strokeColor=none;fillColor=none;align=center;verticalAlign=middle;spacingLeft=4;spacingRight=4;overflow=hidden;rotatable=0;points=[[0,0.5],[1,0.5]];portConstraint=eastwest;whiteSpace=wrap;" parent="QeY7dAsujiUH8Vi82t3R-19" vertex="1">
          <mxGeometry y="29" width="230" height="51" as="geometry" />
        </mxCell>
        <mxCell id="QeY7dAsujiUH8Vi82t3R-21" value="&lt;div&gt;&lt;u&gt;+new(&lt;/u&gt;&lt;u style=&quot;background-color: transparent; color: light-dark(rgb(0, 0, 0), rgb(255, 255, 255));&quot;&gt;string,string,bool,Date,float,int,int)&lt;/u&gt;&lt;/div&gt;+sueldoBruto(): float&lt;div&gt;+salarioFamiliar(): float&lt;/div&gt;&lt;div&gt;+asignacionHijos(): float&lt;/div&gt;&lt;div&gt;+asignacionConyuge(): float&lt;/div&gt;&lt;div&gt;+asignacionAntiguedad(): float&lt;/div&gt;&lt;div&gt;+obraSocial(): float&lt;/div&gt;&lt;div&gt;+aportesJubilatorios(): float&lt;/div&gt;" style="text;html=1;strokeColor=default;fillColor=none;align=left;verticalAlign=middle;spacingLeft=4;spacingRight=4;overflow=hidden;rotatable=0;points=[[0,0.5],[1,0.5]];portConstraint=eastwest;whiteSpace=wrap;" parent="QeY7dAsujiUH8Vi82t3R-19" vertex="1">
          <mxGeometry y="80" width="230" height="140" as="geometry" />
        </mxCell>
        <mxCell id="QeY7dAsujiUH8Vi82t3R-26" value="Extends" style="edgeStyle=orthogonalEdgeStyle;rounded=0;orthogonalLoop=1;jettySize=auto;html=1;exitX=0.481;exitY=0.007;exitDx=0;exitDy=0;endArrow=block;endFill=0;endSize=12;exitPerimeter=0;" parent="1" source="QeY7dAsujiUH8Vi82t3R-22" edge="1">
          <mxGeometry relative="1" as="geometry">
            <mxPoint x="1070" y="610" as="targetPoint" />
            <mxPoint x="1069.76" y="710" as="sourcePoint" />
            <Array as="points">
              <mxPoint x="1070" y="681" />
            </Array>
          </mxGeometry>
        </mxCell>
        <mxCell id="QeY7dAsujiUH8Vi82t3R-22" value="&lt;span style=&quot;color: rgb(0, 0, 0); font-family: Helvetica; font-size: 12px; font-style: normal; font-variant-ligatures: normal; font-variant-caps: normal; letter-spacing: normal; orphans: 2; text-align: center; text-indent: 0px; text-transform: none; widows: 2; word-spacing: 0px; -webkit-text-stroke-width: 0px; white-space: normal; text-decoration-thickness: initial; text-decoration-style: initial; text-decoration-color: initial; float: none; display: inline !important;&quot;&gt;EmpleadoTemporal&lt;/span&gt;" style="swimlane;fontStyle=1;align=center;verticalAlign=middle;childLayout=stackLayout;horizontal=1;startSize=29;horizontalStack=0;resizeParent=1;resizeParentMax=0;resizeLast=0;collapsible=0;marginBottom=0;html=1;whiteSpace=wrap;" parent="1" vertex="1">
          <mxGeometry x="970" y="680" width="240" height="140" as="geometry" />
        </mxCell>
        <mxCell id="QeY7dAsujiUH8Vi82t3R-23" value="-fechaFin: Date&lt;div&gt;-horasExtras: int&lt;/div&gt;" style="text;html=1;strokeColor=none;fillColor=none;align=center;verticalAlign=middle;spacingLeft=4;spacingRight=4;overflow=hidden;rotatable=0;points=[[0,0.5],[1,0.5]];portConstraint=eastwest;whiteSpace=wrap;" parent="QeY7dAsujiUH8Vi82t3R-22" vertex="1">
          <mxGeometry y="29" width="240" height="31" as="geometry" />
        </mxCell>
        <mxCell id="QeY7dAsujiUH8Vi82t3R-24" value="&lt;div&gt;&lt;u&gt;+new&lt;/u&gt;(&lt;u style=&quot;background-color: transparent; color: light-dark(rgb(0, 0, 0), rgb(255, 255, 255));&quot;&gt;string,string,bool,Date,float,Date,int)&lt;/u&gt;&lt;/div&gt;+sueldoBruto(): float&lt;div&gt;+asignacionHorasExtra(): float&lt;br&gt;&lt;div&gt;&lt;div&gt;+obraSocial(): float&lt;br&gt;&lt;/div&gt;&lt;div&gt;+aportesJubilatorios():float&lt;/div&gt;&lt;/div&gt;&lt;/div&gt;" style="text;html=1;strokeColor=default;fillColor=none;align=left;verticalAlign=middle;spacingLeft=4;spacingRight=4;overflow=hidden;rotatable=0;points=[[0,0.5],[1,0.5]];portConstraint=eastwest;whiteSpace=wrap;" parent="QeY7dAsujiUH8Vi82t3R-22" vertex="1">
          <mxGeometry y="60" width="240" height="80" as="geometry" />
        </mxCell>
        <mxCell id="QeY7dAsujiUH8Vi82t3R-11" value="&lt;div&gt;&lt;u&gt;+new(string,string,bool,Date,float)&lt;/u&gt;&lt;/div&gt;+calcularEdad(): int&lt;div&gt;&lt;i&gt;+sueldoBruto(): float&lt;/i&gt;&lt;/div&gt;&lt;div&gt;+retencionesTotal(): float&lt;/div&gt;&lt;div&gt;+sueldoNeto(): float&lt;/div&gt;&lt;div&gt;+getNombre(): string&lt;/div&gt;&lt;div&gt;+getDireccion(): string&lt;/div&gt;&lt;div&gt;+generarRecibo(): Recibo&lt;/div&gt;&lt;div&gt;+getEsConyuge(): bool&lt;/div&gt;&lt;div&gt;+getFechaNacimiento(): Date&lt;/div&gt;&lt;div&gt;+getSueldoBasico(): float&lt;/div&gt;&lt;div&gt;&lt;i&gt;+obraSocial(): float&lt;/i&gt;&lt;/div&gt;&lt;div&gt;&lt;i&gt;+aportesJubilatorios(): float&lt;/i&gt;&lt;/div&gt;&lt;div&gt;&lt;br&gt;&lt;/div&gt;&lt;div&gt;&lt;i&gt;&lt;br&gt;&lt;/i&gt;&lt;/div&gt;&lt;div&gt;&lt;br&gt;&lt;div&gt;&lt;br&gt;&lt;div&gt;&lt;br&gt;&lt;/div&gt;&lt;div&gt;&lt;br&gt;&lt;/div&gt;&lt;/div&gt;&lt;/div&gt;" style="text;html=1;strokeColor=default;fillColor=none;align=left;verticalAlign=middle;spacingLeft=4;spacingRight=4;overflow=hidden;rotatable=0;points=[[0,0.5],[1,0.5]];portConstraint=eastwest;whiteSpace=wrap;" parent="1" vertex="1">
          <mxGeometry x="980" y="420" width="210" height="190" as="geometry" />
        </mxCell>
        <mxCell id="lpR6WsurHIqIZYRDh9g6-2" style="edgeStyle=orthogonalEdgeStyle;rounded=0;orthogonalLoop=1;jettySize=auto;html=1;entryX=0;entryY=0.231;entryDx=0;entryDy=0;entryPerimeter=0;endArrow=open;endFill=0;" parent="1" source="QeY7dAsujiUH8Vi82t3R-8" target="QeY7dAsujiUH8Vi82t3R-10" edge="1">
          <mxGeometry relative="1" as="geometry">
            <Array as="points">
              <mxPoint x="800" y="350" />
              <mxPoint x="800" y="350" />
            </Array>
          </mxGeometry>
        </mxCell>
        <mxCell id="lpR6WsurHIqIZYRDh9g6-4" value="Recibo" style="swimlane;fontStyle=1;align=center;verticalAlign=middle;childLayout=stackLayout;horizontal=1;startSize=29;horizontalStack=0;resizeParent=1;resizeParentMax=0;resizeLast=0;collapsible=0;marginBottom=0;html=1;whiteSpace=wrap;" parent="1" vertex="1">
          <mxGeometry x="980" y="70" width="210" height="220" as="geometry" />
        </mxCell>
        <mxCell id="lpR6WsurHIqIZYRDh9g6-5" value="-nombreEmpleado: string&lt;div&gt;&lt;span style=&quot;background-color: transparent; color: light-dark(rgb(0, 0, 0), rgb(255, 255, 255));&quot;&gt;-d&lt;/span&gt;&lt;span style=&quot;background-color: transparent; color: light-dark(rgb(0, 0, 0), rgb(255, 255, 255));&quot;&gt;irección: string&lt;/span&gt;&lt;/div&gt;&lt;div&gt;&lt;span style=&quot;background-color: transparent; color: light-dark(rgb(0, 0, 0), rgb(255, 255, 255));&quot;&gt;-fechaEmisión: Date&lt;/span&gt;&lt;div&gt;-sueldoBruto: float&lt;/div&gt;&lt;div&gt;-sueldoNeto: float&lt;/div&gt;&lt;/div&gt;" style="text;html=1;strokeColor=none;fillColor=none;align=center;verticalAlign=middle;spacingLeft=4;spacingRight=4;overflow=hidden;rotatable=0;points=[[0,0.5],[1,0.5]];portConstraint=eastwest;whiteSpace=wrap;" parent="lpR6WsurHIqIZYRDh9g6-4" vertex="1">
          <mxGeometry y="29" width="210" height="91" as="geometry" />
        </mxCell>
        <mxCell id="lpR6WsurHIqIZYRDh9g6-6" value="&lt;u&gt;+new(string,string,Date,float,float)&lt;/u&gt;&lt;div&gt;+getNombreEmpleado(): string&lt;/div&gt;&lt;div&gt;+getDireccion(): string&lt;/div&gt;&lt;div&gt;+getFechaEmision(): Date&lt;/div&gt;&lt;div&gt;+getSueldoBruto(): float&lt;/div&gt;&lt;div&gt;+getSueldoNeto(): float&lt;br&gt;&lt;div&gt;&lt;br&gt;&lt;/div&gt;&lt;/div&gt;" style="text;html=1;strokeColor=default;fillColor=none;align=left;verticalAlign=middle;spacingLeft=4;spacingRight=4;overflow=hidden;rotatable=0;points=[[0,0.5],[1,0.5]];portConstraint=eastwest;whiteSpace=wrap;" parent="lpR6WsurHIqIZYRDh9g6-4" vertex="1">
          <mxGeometry y="120" width="210" height="100" as="geometry" />
        </mxCell>
        <mxCell id="lpR6WsurHIqIZYRDh9g6-7" value="recibos" style="text;whiteSpace=wrap;html=1;" parent="1" vertex="1">
          <mxGeometry x="870" y="210" width="90" height="20" as="geometry" />
        </mxCell>
        <mxCell id="lpR6WsurHIqIZYRDh9g6-8" value="*" style="text;html=1;align=center;verticalAlign=middle;resizable=0;points=[];autosize=1;strokeColor=none;fillColor=none;" parent="1" vertex="1">
          <mxGeometry x="940" y="210" width="30" height="30" as="geometry" />
        </mxCell>
        <mxCell id="lpR6WsurHIqIZYRDh9g6-10" value="Concepto" style="swimlane;fontStyle=1;align=center;verticalAlign=middle;childLayout=stackLayout;horizontal=1;startSize=29;horizontalStack=0;resizeParent=1;resizeParentMax=0;resizeLast=0;collapsible=0;marginBottom=0;html=1;whiteSpace=wrap;" parent="1" vertex="1">
          <mxGeometry x="1360" y="140" width="210" height="130" as="geometry" />
        </mxCell>
        <mxCell id="lpR6WsurHIqIZYRDh9g6-11" value="-nombre: string&lt;div&gt;-valor: float&lt;/div&gt;" style="text;html=1;strokeColor=none;fillColor=none;align=center;verticalAlign=middle;spacingLeft=4;spacingRight=4;overflow=hidden;rotatable=0;points=[[0,0.5],[1,0.5]];portConstraint=eastwest;whiteSpace=wrap;" parent="lpR6WsurHIqIZYRDh9g6-10" vertex="1">
          <mxGeometry y="29" width="210" height="41" as="geometry" />
        </mxCell>
        <mxCell id="lpR6WsurHIqIZYRDh9g6-12" value="&lt;u&gt;+new(string, float)&lt;/u&gt;&lt;div&gt;+getNombre(): string&lt;/div&gt;&lt;div&gt;+getMonto(): float&lt;/div&gt;" style="text;html=1;strokeColor=default;fillColor=none;align=left;verticalAlign=middle;spacingLeft=4;spacingRight=4;overflow=hidden;rotatable=0;points=[[0,0.5],[1,0.5]];portConstraint=eastwest;whiteSpace=wrap;" parent="lpR6WsurHIqIZYRDh9g6-10" vertex="1">
          <mxGeometry y="70" width="210" height="60" as="geometry" />
        </mxCell>
        <mxCell id="lpR6WsurHIqIZYRDh9g6-15" value="*" style="text;html=1;align=center;verticalAlign=middle;resizable=0;points=[];autosize=1;strokeColor=none;fillColor=none;" parent="1" vertex="1">
          <mxGeometry x="1330" y="140" width="30" height="30" as="geometry" />
        </mxCell>
        <mxCell id="lpR6WsurHIqIZYRDh9g6-16" value="*" style="text;html=1;align=center;verticalAlign=middle;resizable=0;points=[];autosize=1;strokeColor=none;fillColor=none;" parent="1" vertex="1">
          <mxGeometry x="1330" y="205" width="30" height="30" as="geometry" />
        </mxCell>
        <mxCell id="lpR6WsurHIqIZYRDh9g6-18" value="desgloseConceptos" style="text;html=1;align=center;verticalAlign=middle;resizable=0;points=[];autosize=1;strokeColor=none;fillColor=none;" parent="1" vertex="1">
          <mxGeometry x="1200" y="150" width="130" height="30" as="geometry" />
        </mxCell>
        <mxCell id="lpR6WsurHIqIZYRDh9g6-19" value="conceptos" style="text;html=1;align=center;verticalAlign=middle;resizable=0;points=[];autosize=1;strokeColor=none;fillColor=none;" parent="1" vertex="1">
          <mxGeometry x="1270" y="290" width="80" height="30" as="geometry" />
        </mxCell>
        <mxCell id="lpR6WsurHIqIZYRDh9g6-3" style="edgeStyle=orthogonalEdgeStyle;rounded=0;orthogonalLoop=1;jettySize=auto;html=1;endArrow=open;endFill=0;entryX=0;entryY=0.5;entryDx=0;entryDy=0;" parent="1" source="QeY7dAsujiUH8Vi82t3R-8" target="lpR6WsurHIqIZYRDh9g6-6" edge="1">
          <mxGeometry relative="1" as="geometry">
            <mxPoint x="980" y="220" as="targetPoint" />
            <Array as="points">
              <mxPoint x="855" y="220" />
              <mxPoint x="855" y="240" />
            </Array>
          </mxGeometry>
        </mxCell>
        <mxCell id="lpR6WsurHIqIZYRDh9g6-23" style="edgeStyle=orthogonalEdgeStyle;rounded=0;orthogonalLoop=1;jettySize=auto;html=1;entryX=-0.012;entryY=0.424;entryDx=0;entryDy=0;entryPerimeter=0;endArrow=open;endFill=0;" parent="1" source="QeY7dAsujiUH8Vi82t3R-10" target="lpR6WsurHIqIZYRDh9g6-12" edge="1">
          <mxGeometry relative="1" as="geometry" />
        </mxCell>
        <mxCell id="lpR6WsurHIqIZYRDh9g6-24" style="edgeStyle=orthogonalEdgeStyle;rounded=0;orthogonalLoop=1;jettySize=auto;html=1;entryX=-0.006;entryY=0.244;entryDx=0;entryDy=0;entryPerimeter=0;endArrow=open;endFill=0;" parent="1" source="lpR6WsurHIqIZYRDh9g6-4" target="lpR6WsurHIqIZYRDh9g6-11" edge="1">
          <mxGeometry relative="1" as="geometry" />
        </mxCell>
        <mxCell id="lpR6WsurHIqIZYRDh9g6-25" value="EmpleadoContratado" style="swimlane;fontStyle=1;align=center;verticalAlign=middle;childLayout=stackLayout;horizontal=1;startSize=29;horizontalStack=0;resizeParent=1;resizeParentMax=0;resizeLast=0;collapsible=0;marginBottom=0;html=1;whiteSpace=wrap;" parent="1" vertex="1">
          <mxGeometry x="1240" y="680" width="235" height="156" as="geometry" />
        </mxCell>
        <mxCell id="lpR6WsurHIqIZYRDh9g6-26" value="-numeroContrato: int&lt;div&gt;-medioDe&lt;span style=&quot;background-color: transparent; color: light-dark(rgb(0, 0, 0), rgb(255, 255, 255));&quot;&gt;Pago: string&lt;/span&gt;&lt;/div&gt;" style="text;html=1;strokeColor=none;fillColor=none;align=center;verticalAlign=middle;spacingLeft=4;spacingRight=4;overflow=hidden;rotatable=0;points=[[0,0.5],[1,0.5]];portConstraint=eastwest;whiteSpace=wrap;" parent="lpR6WsurHIqIZYRDh9g6-25" vertex="1">
          <mxGeometry y="29" width="235" height="41" as="geometry" />
        </mxCell>
        <mxCell id="lpR6WsurHIqIZYRDh9g6-27" value="&lt;u&gt;+new(string,string,bool,Date,float,int,string)&lt;/u&gt;&lt;div&gt;+sueldoBruto(): float&lt;/div&gt;&lt;div&gt;+retencionesTotal(): float&lt;/div&gt;&lt;div&gt;+obraSocial(): float&lt;/div&gt;&lt;div&gt;+aportesJubilatorios(): float&lt;/div&gt;" style="text;html=1;strokeColor=default;fillColor=none;align=left;verticalAlign=middle;spacingLeft=4;spacingRight=4;overflow=hidden;rotatable=0;points=[[0,0.5],[1,0.5]];portConstraint=eastwest;whiteSpace=wrap;" parent="lpR6WsurHIqIZYRDh9g6-25" vertex="1">
          <mxGeometry y="70" width="235" height="86" as="geometry" />
        </mxCell>
        <mxCell id="dZJGWGTGnK6Kx3sEjWVh-1" style="edgeStyle=orthogonalEdgeStyle;rounded=0;orthogonalLoop=1;jettySize=auto;html=1;entryX=0.81;entryY=1;entryDx=0;entryDy=0;entryPerimeter=0;endArrow=block;endFill=0;endSize=12;" edge="1" parent="1" source="lpR6WsurHIqIZYRDh9g6-25" target="QeY7dAsujiUH8Vi82t3R-11">
          <mxGeometry relative="1" as="geometry" />
        </mxCell>
        <mxCell id="dZJGWGTGnK6Kx3sEjWVh-2" value="Extends" style="edgeLabel;html=1;align=center;verticalAlign=middle;resizable=0;points=[];" vertex="1" connectable="0" parent="dZJGWGTGnK6Kx3sEjWVh-1">
          <mxGeometry x="0.3485" y="-1" relative="1" as="geometry">
            <mxPoint as="offset" />
          </mxGeometry>
        </mxCell>
      </root>
    </mxGraphModel>
  </diagram>
</mxfile>
